inDegrees=no
num_controls=7
num_derivatives=13
num_iterations=96
num_multipliers=7
num_parameters=0
num_slacks=7
num_states=26
objective=0.431128
objective_accelerations=0.049674
objective_balance=0.006728
objective_effort=0.031003
objective_height=0.342550
objective_ligament=0.001172
solver_duration=1407.589003
status=Solve_Succeeded
success=true
DataType=double
version=3
OpenSimVersion=4.5
endheader
time	/jointset/ground_pelvis/pelvis_tilt/value	/jointset/ground_pelvis/pelvis_tx/value	/jointset/ground_pelvis/pelvis_ty/value	/jointset/hip_l/hip_flexion_l/value	/jointset/hip_l/hip_adduction_l/value	/jointset/hip_l/hip_rotation_l/value	/jointset/back/lumbar_extension/value	/jointset/patellofemoral_l/patellar_flexion_l/value	/jointset/knee_l/knee_flexion_l/value	/jointset/knee_l/knee_adduction_l/value	/jointset/knee_l/knee_rotation_l/value	/jointset/ankle_l/ankle_angle_l/value	/jointset/subtalar_l/subtalar_angle_l/value	/jointset/ground_pelvis/pelvis_tilt/speed	/jointset/ground_pelvis/pelvis_tx/speed	/jointset/ground_pelvis/pelvis_ty/speed	/jointset/hip_l/hip_flexion_l/speed	/jointset/hip_l/hip_adduction_l/speed	/jointset/hip_l/hip_rotation_l/speed	/jointset/back/lumbar_extension/speed	/jointset/patellofemoral_l/patellar_flexion_l/speed	/jointset/knee_l/knee_flexion_l/speed	/jointset/knee_l/knee_adduction_l/speed	/jointset/knee_l/knee_rotation_l/speed	/jointset/ankle_l/ankle_angle_l/speed	/jointset/subtalar_l/subtalar_angle_l/speed	/forceset/tau_hip_flexion_l	/forceset/tau_hip_adduction_l	/forceset/tau_hip_rotation_l	/forceset/tau_knee_flexion_l	/forceset/tau_ankle_angle_l	/forceset/tau_subtalar_angle_l	/forceset/tau_lumbar_extension	lambda_cid13_p0	lambda_cid13_p1	lambda_cid13_p2	lambda_cid13_p3	lambda_cid13_p4	lambda_cid13_p5	lambda_cid14_p0	/jointset/ground_pelvis/pelvis_tilt/accel	/jointset/ground_pelvis/pelvis_tx/accel	/jointset/ground_pelvis/pelvis_ty/accel	/jointset/hip_l/hip_flexion_l/accel	/jointset/hip_l/hip_adduction_l/accel	/jointset/hip_l/hip_rotation_l/accel	/jointset/back/lumbar_extension/accel	/jointset/patellofemoral_l/patellar_flexion_l/accel	/jointset/knee_l/knee_flexion_l/accel	/jointset/knee_l/knee_adduction_l/accel	/jointset/knee_l/knee_rotation_l/accel	/jointset/ankle_l/ankle_angle_l/accel	/jointset/subtalar_l/subtalar_angle_l/accel	gamma_cid13_p0	gamma_cid13_p1	gamma_cid13_p2	gamma_cid13_p3	gamma_cid13_p4	gamma_cid13_p5	gamma_cid14_p0
0	-0.1564099849135707	0.05717594671384488	0.8978743877549585	0.3774924667018715	-0.2609108681315423	-0.2423314651758883	-0.01265067647494873	0.03223648243721438	0.03223648243721463	-0.1745329144249661	0.1452938343323885	-0.04231377076293093	-0.01139315628997062	0	0	0	0	0	0	0	0	0	0	0	0	0	0.1493080289936461	-0.0748455612438949	-0.05061088094356161	-0.3362627518347125	0.3833215284458824	-0.0565232547604867	-0.08671113453622997	81.26059657535779	6.054856031136604	3.503986324393249	-36.64557899470758	-592.0081002014821	-64.13356772332324	-38.1917894766812	-2.752183152743086	-1.159435759029501	-0.9290698349366593	10.53237168864729	-1.308472382402353	3.380009223512181	-5.115956186675774	10.72003705668257	10.7200370566831	0.06958126595620366	0.3752782565796812	3.196202863382239	-0.5953238737382189	-6.218165895078322e-08	5.319720251708144e-08	9.821901641153983e-08	4.549577027319453e-08	-7.706105431511992e-08	-1.091311894883843e-07	-1.3820618341392e-08
0.01	-0.156541687590409	0.05711587600218771	0.8978287000128705	0.3780087406433021	-0.260976233488548	-0.2421630632954896	-0.01291164161365745	0.03276083507538771	0.03276083507538861	-0.1745318029231009	0.1453092121293802	-0.04216182461992381	-0.01142467550914242	-0.02619106446969434	-0.01225574165703062	-0.009143602458925822	0.1031553999699341	-0.0130339795185598	0.03353599741127968	-0.0522615631479267	0.1044392212031704	0.1044392212031713	0.000175583513685916	0.00305636947441601	0.02987087214324243	-0.00638687727924339	0.1392648310810818	-0.08560324896872104	-0.04744083201966167	-0.3161100434460222	0.3463482875856123	-0.03494495669025605	-0.08043392581234683	70.10547702972694	-1.164464060630117	4.427687023924485	-27.13015553751664	-591.7337956311933	-77.75212131816949	-38.20713855141928	-2.530151725907116	-1.294874168720915	-0.9079289697825308	10.19220968845459	-1.29502679422965	3.318727038795489	-5.291536689758069	10.24117145152695	10.24117145152682	-0.01543390320349549	0.2679282869899889	2.804769634967988	-0.6728434223571366	-7.900691027929259e-08	8.078532271423745e-08	1.551194273635735e-07	4.817903509546781e-08	-1.487199518672678e-07	-7.621042600642271e-08	-2.522133942943341e-08
0.02	-0.15693081763831	0.05692600171402405	0.8976913915425105	0.3795535856918889	-0.2611707718522687	-0.2416636350332062	-0.0136972784460275	0.0343166412854715	0.03431664128547138	-0.1745303317455425	0.1453545760199392	-0.0417267217064498	-0.01152255825457464	-0.05148547421236494	-0.02596071530129978	-0.01832414565435365	0.2057142214313938	-0.02583460134299499	0.06620527637694422	-0.1049343387321311	0.206290714382047	0.2062907143820481	7.193513623991534e-05	0.005997218713529291	0.05663135409339383	-0.01327270525207678	0.1292216331685127	-0.09636093669354409	-0.0442707830957691	-0.295957335057335	0.3093750467253413	-0.01336665862002245	-0.07415671708846731	59.03692904967812	-8.402011313401093	5.357805085469939	-17.84339614594796	-590.1904475894369	-91.25991603085862	-38.25284672479605	-2.572852207338337	-1.449282156477205	-0.9364579822370622	10.41305598695241	-1.261800843577455	3.206665534389152	-5.198198673931305	10.20249145182379	10.20249145182419	0.0137348877297718	0.3521742095191381	2.574124824764027	-0.695114012456244	-9.583216160780197e-08	1.083734429113935e-07	2.120198383156071e-07	5.086229991774109e-08	-2.203788494194156e-07	-4.32896625244611e-08	-3.662206051747483e-08
0.03	-0.1575683356471929	0.05659569610567996	0.8974623849422476	0.3821162007845051	-0.2614913075143683	-0.240841889247451	-0.01500552554901907	0.0368778603478298	0.03687786034782917	-0.1745301373784392	0.1454289114230836	-0.0410343381348229	-0.01168980050979502	-0.07583643349847399	-0.03995463282517028	-0.02744952390553848	0.3061839707924227	-0.03815913175071729	0.09799638843232855	-0.1561931494463594	0.3054854380151133	0.3054854380151417	1.603013407171048e-05	0.008857474527400511	0.08184155157859917	-0.02007040094342931	0.1229743652720178	-0.08960854446447676	-0.04343949448951227	-0.2906783713901296	0.3046277701380737	-0.01666383262226175	-0.06880852305466255	57.38817538292319	-6.846251069254718	5.29811326713545	-17.73676669785491	-590.7195533742415	-87.23625263576895	-38.32753358100937	-2.338973089359184	-1.35257033568527	-0.8964745379567352	9.770196492101771	-1.200800880518529	3.143179238909312	-5.011432407184392	9.707821178345608	9.707821178348784	-0.007849372487863302	0.251063808359141	2.49389006330774	-0.6563362261968861	-1.232140704193352e-07	1.237572435071992e-07	2.417595077935021e-07	7.876236764718646e-08	-3.517146762083034e-07	-4.517561875205654e-08	-4.174637720046998e-08
0.04	-0.1584439143089602	0.05612982656502852	0.8971429452011932	0.3856647657870158	-0.2619316928287747	-0.2397066633015826	-0.0168107027865564	0.0404169983183782	0.04041699831837721	-0.1745290212970148	0.1455314718925746	-0.04008996801776219	-0.01192186749767337	-0.09909760478905953	-0.05307350176276953	-0.03641077381264377	0.402904203410398	-0.04980453180439644	0.1289013083995622	-0.2043203656412191	0.4018744960200812	0.4018744960201084	0.0002562779999932626	0.01164223198279282	0.1070286631801621	-0.02623765178366727	0.1167270973755242	-0.08285615223540821	-0.04260820588325556	-0.2853994077229248	0.299880493550806	-0.01996100662449987	-0.06346032902085656	55.81983321875008	-5.303318870414	5.239041107289838	-17.84045568546926	-590.0865016432502	-83.1008783015057	-38.42914211670338	-2.354894608233629	-1.274272439222953	-0.9036323134211544	9.663152638341693	-1.125974772768839	3.029427116759005	-4.571879770057567	9.641358326204106	9.641358326198837	0.07296546134769674	0.3370745378233579	2.569507648035544	-0.5690250422333454	-1.508136422717555e-07	1.38889408647307e-07	2.709391619832705e-07	1.071823694571921e-07	-4.842809551464025e-07	-4.77792393035604e-08	-4.674128348336109e-08
0.05	-0.159547575155654	0.05553617039899211	0.8967342953138321	0.3901644311439643	-0.2624851673495389	-0.2382668451703436	-0.0190834314415472	0.04490663682631996	0.04490663682631858	-0.1745242585134445	0.1456617068493427	-0.03889499714812294	-0.01221279478969683	-0.1215041729289873	-0.06560612225411613	-0.04532544189896274	0.4965836859536272	-0.06078195533210166	0.1589146057406187	-0.2499369493271596	0.495584996507926	0.4955849965079636	0.0007086263570764123	0.01438885992174383	0.1318231422303187	-0.03188312165898161	0.1108245123505321	-0.08048449195625286	-0.04158606141660438	-0.2795631661182922	0.2910917647122138	-0.0181202950644467	-0.05885061403486602	53.11904372738885	-5.689983028582427	5.369369489887958	-16.32457332500256	-589.2922599884515	-82.91721865241048	-38.55522301439338	-2.163987008274647	-1.23499380939451	-0.8864177195792293	9.153550894736956	-1.06739874615186	2.965084591177507	-4.513285263388847	9.165673939641538	9.165673939645988	0.03327162398256605	0.2410339766665243	2.413052414464755	-0.5526564157814605	-1.669607547930437e-07	1.509903398692189e-07	2.924589011527023e-07	1.239509000727726e-07	-5.656017438752276e-07	-3.972697562153162e-08	-5.026880221996969e-08
0.06	-0.1608713915020283	0.05481874063698142	0.8962362920129393	0.3955875322928293	-0.2631451706262561	-0.2365313333560144	-0.02180367345250305	0.05031933594505335	0.05031933594505182	-0.1745145918260828	0.1458189234964477	-0.03745635461179035	-0.01255824647159366	-0.1431287047250042	-0.07782822095762025	-0.05428145651897313	0.5875913617937931	-0.07111028299502713	0.1880400450176161	-0.2938230368341619	0.5864866181784449	0.5864866181785032	0.001237058757917081	0.01703857005011691	0.1557629965188366	-0.03714252975833543	0.1049219273255387	-0.07811283167709616	-0.04056391694995282	-0.2737269245136608	0.2823030358736215	-0.01627958350439223	-0.05424089904887672	50.48989011920568	-6.088468560655389	5.500761213500426	-15.00108932131115	-587.4562718839217	-82.63456455934663	-38.70326052355468	-2.198487339451447	-1.212168081654452	-0.9119016201594438	9.128791297729014	-0.9961555998128956	2.851855503947177	-4.22578053426993	9.079582562738903	9.079582562735743	0.08818227009918152	0.3176909757077729	2.398582695707813	-0.4918126870412522	-1.826256585003896e-07	1.62963640189312e-07	3.136561175844358e-07	1.402288424275351e-07	-6.447648277531358e-07	-3.122604312966991e-08	-5.373453621778745e-08
0.07000000000000001	-0.1624077148805664	0.05398088568952694	0.8956483630555341	0.4019077118146425	-0.263905155711336	-0.2345090394698945	-0.02495310653351471	0.05662775367676515	0.05662775367676281	-0.174499252010124	0.1460024522330927	-0.03578197010978033	-0.0129541907338951	-0.1639807007602304	-0.0896638836476787	-0.06331893440821489	0.6759512564979087	-0.08077510267734306	0.216274819306264	-0.3357157458959177	0.6747419315627953	0.6747419315628826	0.001830995947654322	0.01965387132125449	0.1790113954774123	-0.04197160792681157	0.09820406840750405	-0.07461450951350046	-0.03950353241786145	-0.2679870204035247	0.2739477134104012	-0.01526079786308694	-0.04890873152230867	47.94314952995973	-6.16289992084704	5.601594119543357	-13.85969158790137	-586.1127001632839	-81.58250314268776	-38.87027399403266	-2.00527232212617	-1.15740438676033	-0.9019907027462	8.615575236738005	-0.9349362667710331	2.787655103709208	-4.118841071288728	8.630267025026123	8.630267025032454	0.04506884792416364	0.2314086015359239	2.27257994549106	-0.4673075873797043	-1.912291707083244e-07	1.496355204205818e-07	3.374472816077997e-07	1.48574054235725e-07	-6.904184105878347e-07	-4.078502576475327e-08	-5.788457257932575e-08
